# xmcd
#
# Track frame offsets:
# 182
# 12242
# 24242
# 39055
# 52685
# 66627
# 79502
# 93095
# 106252
# 118427
# 129720
# 141107
# 157355
# 170142
# 181435
# 196287
# 211315
# 222435
# 237827
# 249722
# 262887
#
# Disc length: 3704 seconds
#
#
# Revision: 0
# Processed by: cddbd v1.4PL0 Copyright (c) Steve Scherf et al.
# Submitted via: FreeRIP 2.35 
#
DISCID=2a0e7615
DTITLE=Billie Jo Spears - Country Classics Disc 2
DYEAR=1900
DGENRE=Country
TTITLE0=Misty Blue
TTITLE1=I've Got To Go
TTITLE2=Hurt
TTITLE3=Happy Ever After
TTITLE4=Standing Tall
TTITLE5=There's more To A Tear Than Meets The eye
TTITLE6=Permanently lonely
TTITLE7=She's Out There Dancing
TTITLE8=All I Want Is You
TTITLE9=Till Something Better Comes Along
TTITLE10=Broken Lady
TTITLE11=Love Let Me Down
TTITLE12=Faded love
TTITLE13=When You hurt Me (More Than I Love You)
TTITLE14=(Hey Won't You Play) Another Somebody Done Somebody Wrong song
TTITLE15=Every Time I Sing A Love Song
TTITLE16=Everyday I Have To Cry
TTITLE17=Here Comes Those Lies Again
TTITLE18=Rainy Days And Stormy Nights
TTITLE19=Love Ain't Gonna Wait For Us
TTITLE20=I Will Survive
EXTD=Reader's Digest Collection dics 2
EXTT0=
EXTT1=
EXTT2=
EXTT3=
EXTT4=
EXTT5=
EXTT6=
EXTT7=
EXTT8=
EXTT9=
EXTT10=
EXTT11=
EXTT12=
EXTT13=
EXTT14=
EXTT15=
EXTT16=
EXTT17=
EXTT18=
EXTT19=
EXTT20=
PLAYORDER=
